<svg width="40" height="40" viewBox="0 0 40 40" fill="none" xmlns="http://www.w3.org/2000/svg"><path d="M32.1167 8.88325C29.9 7.84991 27.5 7.09991 25 6.66658C24.9781 6.66588 24.9563 6.66999 24.9361 6.67863C24.916 6.68727 24.8979 6.70022 24.8833 6.71658C24.5833 7.26658 24.2333 7.98325 24 8.53325C21.3483 8.13325 18.6517 8.13325 16 8.53325C15.7667 7.96658 15.4167 7.26658 15.1 6.71658C15.0833 6.68325 15.0333 6.66658 14.9833 6.66658C12.4833 7.09991 10.1 7.84991 7.86667 8.88325C7.85 8.88325 7.83333 8.89991 7.81667 8.91658C3.28333 15.6999 2.03333 22.2999 2.65 28.8332C2.65 28.8666 2.66667 28.8999 2.7 28.9166C5.7 31.1166 8.58333 32.4499 11.4333 33.3332C11.4833 33.3499 11.5333 33.3332 11.55 33.2999C12.2167 32.3832 12.8167 31.4166 13.3333 30.3999C13.3667 30.3332 13.3333 30.2666 13.2667 30.2499C12.3167 29.8832 11.4167 29.4499 10.5333 28.9499C10.4667 28.9166 10.4667 28.8166 10.5167 28.7666C10.7 28.6332 10.8833 28.4832 11.0667 28.3499C11.1 28.3166 11.15 28.3166 11.1833 28.3332C16.9167 30.9499 23.1 30.9499 28.7667 28.3332C28.8 28.3166 28.85 28.3166 28.8833 28.3499C29.0667 28.4999 29.25 28.6332 29.4333 28.7832C29.5 28.8332 29.5 28.9332 29.4167 28.9666C28.55 29.4832 27.6333 29.8999 26.6833 30.2666C26.6167 30.2832 26.6 30.3666 26.6167 30.4166C27.15 31.4332 27.75 32.3999 28.4 33.3166C28.45 33.3332 28.5 33.3499 28.55 33.3332C31.4167 32.4499 34.3 31.1166 37.3 28.9166C37.3333 28.8999 37.35 28.8666 37.35 28.8332C38.0833 21.2832 36.1333 14.7332 32.1833 8.91658C32.1667 8.89991 32.15 8.88325 32.1167 8.88325ZM14.2 24.8499C12.4833 24.8499 11.05 23.2666 11.05 21.3166C11.05 19.3666 12.45 17.7832 14.2 17.7832C15.9667 17.7832 17.3667 19.3832 17.35 21.3166C17.35 23.2666 15.95 24.8499 14.2 24.8499ZM25.8167 24.8499C24.1 24.8499 22.6667 23.2666 22.6667 21.3166C22.6667 19.3666 24.0667 17.7832 25.8167 17.7832C27.5833 17.7832 28.9833 19.3832 28.9667 21.3166C28.9667 23.2666 27.5833 24.8499 25.8167 24.8499Z" fill="white"/></svg>